<?xml version="1.0" encoding="utf-8"?>
<!-- Generator: Adobe Illustrator 23.0.3, SVG Export Plug-In . SVG Version: 6.00 Build 0)  -->
<svg version="1.1" id="Calque_1" xmlns="http://www.w3.org/2000/svg" xmlns:xlink="http://www.w3.org/1999/xlink" x="0px" y="0px"
	 viewBox="0 0 1080 1080" style="enable-background:new 0 0 1080 1080;" xml:space="preserve">
<style type="text/css">
	.st0{fill:#FFFFFF;}
	.st1{fill:none;stroke:#FFFFFF;stroke-width:3;stroke-miterlimit:10;}
	.st2{fill:none;stroke:#FFFFFF;stroke-width:2;stroke-miterlimit:10;}
	.st3{enable-background:new    ;}
	.st4{fill: #100C0D;}
</style>
<rect y="0" width="1080" height="1080" class="st4"/>
<rect x="175.2" y="238" class="st0" width="46.7" height="107.7"/>
<polygon class="st0" points="175.2,386.8 313.5,386.8 313.5,238 358.4,238 358.4,476.7 313.5,476.7 312.6,433.4 222,433.4 
	222,476.7 175.2,476.7 "/>
<polygon class="st0" points="395.8,238 442.5,238 442.5,436.7 469.1,436.7 469.1,477.8 365.9,476.7 365.9,436.7 395.8,437.1 "/>
<rect x="664.9" y="238" class="st0" width="46.7" height="107.7"/>
<polygon class="st0" points="664.9,386.8 797.5,386.8 797.5,238 846.1,238 846.1,476.7 797.5,476.7 797.5,433.4 711.6,433.4 
	711.6,476.7 664.9,476.7 "/>
<path class="st0" d="M655.5,238v45.8c0,0-117-24.3-132.4,44.1c-15.4,68.4,15.4,105.4,84.9,105.4v-61.3h-46.3v-44.1l93.8-1.1v149.8
	c0,0-186.5,31.4-181-118.8C480.1,207.7,599.4,250.6,655.5,238L655.5,238z"/>
<path class="st0" d="M655.5,283.8c0,0-84.4-6.3-107.5,9.7l45.2-37.6L655.5,283.8L655.5,283.8z"/>
<path class="st0" d="M655.5,238c0,0-99.1-4.2-125.3,13.8c-26.2,17.9,120.3-5.4,120.3-5.4L655.5,238L655.5,238z"/>
<polygon class="st1" points="343.6,508.4 343.6,563.4 274.3,563.4 274.3,607.5 372,607.5 372,659.8 274.3,659.8 277.9,758 
	217.5,758 217.5,508.4 "/>
<polygon class="st1" points="393.2,508.4 454.5,508.4 454.5,704.8 478.8,704.8 478.8,758 365.9,758 365.9,704.8 393.2,704.8 "/>
<polygon class="st1" points="652.7,758 775.2,758 775.2,702.1 711.6,702.1 711.6,659.8 803.1,659.8 803.1,607.5 711.6,607.5 
	711.6,563.4 775.2,563.4 775.2,508.4 652.7,508.4 "/>
<path class="st1" d="M650,553.5h-52.4l-31.7,96.2l-43-141.3h-52.6L569.5,758l80.9-202.1C650.2,555.1,650,554.3,650,553.5L650,553.5z
	"/>
<line class="st2" x1="217.5" y1="848.6" x2="497.5" y2="848.6"/>
<g class="st3">
	<path class="st0" d="M529.4,851.5l4.8-0.4c0.2,1.9,0.8,3.5,1.6,4.7s2.1,2.2,3.9,3c1.7,0.8,3.7,1.1,5.9,1.1c1.9,0,3.7-0.3,5.1-0.9
		c1.5-0.6,2.6-1.4,3.3-2.4c0.7-1,1.1-2.1,1.1-3.3c0-1.2-0.4-2.3-1-3.2c-0.7-0.9-1.9-1.7-3.5-2.3c-1-0.4-3.3-1-6.8-1.9
		c-3.5-0.8-6-1.6-7.4-2.4c-1.8-1-3.2-2.2-4.1-3.6s-1.3-3-1.3-4.8c0-1.9,0.6-3.8,1.7-5.4c1.1-1.7,2.7-3,4.8-3.8
		c2.1-0.9,4.5-1.3,7.1-1.3c2.8,0,5.4,0.5,7.5,1.4c2.2,0.9,3.8,2.3,5,4.1c1.2,1.8,1.8,3.8,1.9,6.1l-4.9,0.4c-0.3-2.4-1.1-4.3-2.7-5.5
		s-3.7-1.9-6.7-1.9c-3.1,0-5.3,0.6-6.7,1.7c-1.4,1.1-2.1,2.5-2.1,4.1c0,1.4,0.5,2.5,1.5,3.4c1,0.9,3.5,1.8,7.7,2.7
		c4.1,0.9,7,1.8,8.5,2.5c2.2,1,3.9,2.3,5,3.9c1.1,1.6,1.6,3.4,1.6,5.5c0,2-0.6,4-1.8,5.8c-1.2,1.8-2.9,3.2-5,4.2
		c-2.2,1-4.7,1.5-7.4,1.5c-3.5,0-6.4-0.5-8.7-1.5s-4.2-2.5-5.5-4.6C530.2,856.4,529.5,854.1,529.4,851.5z"/>
	<path class="st0" d="M571.2,874.5V836h4.3v3.6c1-1.4,2.2-2.5,3.4-3.2c1.3-0.7,2.8-1.1,4.6-1.1c2.4,0,4.5,0.6,6.3,1.8
		c1.8,1.2,3.2,3,4.1,5.2c0.9,2.2,1.4,4.7,1.4,7.3c0,2.8-0.5,5.4-1.5,7.7c-1,2.3-2.5,4-4.5,5.2c-1.9,1.2-4,1.8-6.1,1.8
		c-1.6,0-3-0.3-4.2-1c-1.3-0.7-2.3-1.5-3.1-2.5v13.6H571.2z M575.5,850.1c0,3.6,0.7,6.2,2.2,7.9c1.5,1.7,3.2,2.6,5.3,2.6
		c2.1,0,3.9-0.9,5.4-2.7c1.5-1.8,2.2-4.5,2.2-8.2c0-3.5-0.7-6.2-2.2-8s-3.2-2.6-5.2-2.6c-2,0-3.8,0.9-5.3,2.8
		C576.3,843.8,575.5,846.5,575.5,850.1z"/>
	<path class="st0" d="M604.1,849.9c0-5.2,1.4-9,4.3-11.5c2.4-2.1,5.3-3.1,8.8-3.1c3.8,0,7,1.3,9.4,3.8c2.4,2.5,3.6,6,3.6,10.4
		c0,3.6-0.5,6.4-1.6,8.5s-2.6,3.6-4.7,4.8c-2.1,1.1-4.3,1.7-6.7,1.7c-3.9,0-7-1.2-9.5-3.7C605.3,858.3,604.1,854.7,604.1,849.9z
		 M609,849.9c0,3.6,0.8,6.2,2.3,8c1.6,1.8,3.5,2.7,5.9,2.7c2.3,0,4.3-0.9,5.8-2.7s2.3-4.5,2.3-8.2c0-3.4-0.8-6.1-2.3-7.8
		c-1.6-1.8-3.5-2.7-5.8-2.7c-2.4,0-4.3,0.9-5.9,2.6C609.8,843.7,609,846.4,609,849.9z"/>
</g>
<g class="st3">
	<path class="st0" d="M637.7,863.9V836h4.2v4.2c1.1-2,2.1-3.3,3-3.9c0.9-0.6,1.9-0.9,3-0.9c1.6,0,3.2,0.5,4.8,1.5l-1.6,4.4
		c-1.2-0.7-2.3-1-3.5-1c-1,0-2,0.3-2.8,0.9c-0.8,0.6-1.4,1.5-1.8,2.6c-0.5,1.7-0.8,3.5-0.8,5.5v14.6H637.7z"/>
</g>
<g class="st3">
	<path class="st0" d="M671.9,859.6l0.7,4.2c-1.3,0.3-2.5,0.4-3.6,0.4c-1.7,0-3-0.3-4-0.8c-0.9-0.5-1.6-1.3-2-2.1
		c-0.4-0.9-0.6-2.7-0.6-5.6v-16H659V836h3.5v-6.9l4.7-2.8v9.7h4.7v3.7h-4.7V856c0,1.3,0.1,2.2,0.2,2.6c0.2,0.4,0.4,0.7,0.8,0.9
		c0.4,0.2,0.9,0.3,1.6,0.3C670.4,859.8,671.1,859.8,671.9,859.6z"/>
	<path class="st0" d="M699.2,855.6l4.7-0.7c0.3,1.9,1,3.3,2.2,4.3s2.9,1.5,5,1.5c2.2,0,3.8-0.4,4.8-1.3c1-0.9,1.6-1.9,1.6-3.1
		c0-1.1-0.5-1.9-1.4-2.5c-0.6-0.4-2.3-1-4.8-1.6c-3.5-0.9-5.9-1.6-7.2-2.3s-2.4-1.5-3-2.6c-0.7-1.1-1-2.4-1-3.7
		c0-1.2,0.3-2.4,0.9-3.4c0.6-1.1,1.3-1.9,2.3-2.6c0.7-0.5,1.7-1,3-1.4c1.3-0.4,2.6-0.6,4.1-0.6c2.2,0,4.1,0.3,5.8,0.9
		c1.7,0.6,2.9,1.5,3.7,2.6s1.3,2.5,1.6,4.3l-4.6,0.6c-0.2-1.4-0.8-2.6-1.8-3.4c-1-0.8-2.4-1.2-4.3-1.2c-2.2,0-3.7,0.4-4.6,1.1
		s-1.4,1.6-1.4,2.5c0,0.6,0.2,1.2,0.6,1.7c0.4,0.5,1,0.9,1.8,1.3c0.5,0.2,1.9,0.6,4.2,1.2c3.3,0.9,5.7,1.6,7,2.2
		c1.3,0.6,2.4,1.4,3.1,2.5c0.8,1.1,1.1,2.4,1.1,4c0,1.6-0.5,3.1-1.4,4.4c-0.9,1.4-2.2,2.5-4,3.2c-1.7,0.8-3.7,1.1-5.9,1.1
		c-3.6,0-6.4-0.8-8.3-2.3S699.8,858.5,699.2,855.6z"/>
	<path class="st0" d="M743.1,859.6l0.7,4.2c-1.3,0.3-2.5,0.4-3.6,0.4c-1.7,0-3-0.3-4-0.8c-0.9-0.5-1.6-1.3-2-2.1
		c-0.4-0.9-0.6-2.7-0.6-5.6v-16h-3.5V836h3.5v-6.9l4.7-2.8v9.7h4.7v3.7h-4.7V856c0,1.3,0.1,2.2,0.2,2.6c0.2,0.4,0.4,0.7,0.8,0.9
		c0.4,0.2,0.9,0.3,1.6,0.3C741.6,859.8,742.3,859.8,743.1,859.6z"/>
	<path class="st0" d="M770.8,863.9v-4.1c-2.2,3.1-5.1,4.7-8.8,4.7c-1.6,0-3.2-0.3-4.6-0.9c-1.4-0.6-2.5-1.4-3.2-2.4
		c-0.7-1-1.2-2.1-1.5-3.5c-0.2-0.9-0.3-2.4-0.3-4.4V836h4.7v15.4c0,2.5,0.1,4.1,0.3,5c0.3,1.2,0.9,2.2,1.9,2.9s2.1,1.1,3.6,1.1
		s2.7-0.4,4-1.1c1.2-0.7,2.1-1.7,2.6-3s0.8-3.1,0.8-5.4V836h4.7v27.8H770.8z"/>
	<path class="st0" d="M805.3,863.9v-3.5c-1.8,2.8-4.4,4.1-7.8,4.1c-2.2,0-4.3-0.6-6.1-1.8c-1.9-1.2-3.3-2.9-4.3-5.1
		s-1.5-4.7-1.5-7.6c0-2.8,0.5-5.3,1.4-7.6c0.9-2.3,2.3-4,4.2-5.2s3.9-1.8,6.2-1.8c1.7,0,3.2,0.4,4.5,1.1c1.3,0.7,2.4,1.6,3.2,2.8
		v-13.8h4.7v38.4H805.3z M790.4,850c0,3.6,0.8,6.2,2.3,8s3.3,2.6,5.3,2.6c2.1,0,3.8-0.8,5.3-2.5c1.4-1.7,2.2-4.3,2.2-7.7
		c0-3.8-0.7-6.6-2.2-8.4c-1.5-1.8-3.3-2.7-5.4-2.7c-2.1,0-3.8,0.9-5.3,2.6S790.4,846.3,790.4,850z"/>
	<path class="st0" d="M822,830.9v-5.4h4.7v5.4H822z M822,863.9V836h4.7v27.8H822z"/>
	<path class="st0" d="M837,849.9c0-5.2,1.4-9,4.3-11.5c2.4-2.1,5.3-3.1,8.8-3.1c3.8,0,7,1.3,9.4,3.8c2.4,2.5,3.6,6,3.6,10.4
		c0,3.6-0.5,6.4-1.6,8.5s-2.6,3.6-4.7,4.8c-2.1,1.1-4.3,1.7-6.7,1.7c-3.9,0-7-1.2-9.5-3.7C838.2,858.3,837,854.7,837,849.9z
		 M841.8,849.9c0,3.6,0.8,6.2,2.3,8c1.6,1.8,3.5,2.7,5.9,2.7c2.3,0,4.3-0.9,5.8-2.7s2.3-4.5,2.3-8.2c0-3.4-0.8-6.1-2.3-7.8
		c-1.6-1.8-3.5-2.7-5.8-2.7c-2.4,0-4.3,0.9-5.9,2.6C842.6,843.7,841.8,846.4,841.8,849.9z"/>
</g>
</svg>
